<?xml version="1.0" encoding="UTF-8" standalone="no"?>
<svg
   xmlns:dc="http://purl.org/dc/elements/1.1/"
   xmlns:cc="http://creativecommons.org/ns#"
   xmlns:rdf="http://www.w3.org/1999/02/22-rdf-syntax-ns#"
   xmlns:svg="http://www.w3.org/2000/svg"
   xmlns="http://www.w3.org/2000/svg"
   xmlns:sodipodi="http://sodipodi.sourceforge.net/DTD/sodipodi-0.dtd"
   xmlns:inkscape="http://www.inkscape.org/namespaces/inkscape"
   version="1.1"
   width="595.27557"
   height="841.88977"
   id="svg10"
   viewBox="0 0 595.27557 841.88977"
   sodipodi:docname="logo.svg"
   inkscape:version="0.92.1 r15371">
  <metadata
     id="metadata16">
    <rdf:RDF>
      <cc:Work
         rdf:about="">
        <dc:format>image/svg+xml</dc:format>
        <dc:type
           rdf:resource="http://purl.org/dc/dcmitype/StillImage" />
        <dc:title></dc:title>
      </cc:Work>
    </rdf:RDF>
  </metadata>
  <defs
     id="defs14" />
  <sodipodi:namedview
     pagecolor="#ffffff"
     bordercolor="#666666"
     borderopacity="1"
     objecttolerance="10"
     gridtolerance="10"
     guidetolerance="10"
     inkscape:pageopacity="0"
     inkscape:pageshadow="2"
     inkscape:window-width="1366"
     inkscape:window-height="706"
     id="namedview12"
     showgrid="false"
     showguides="true"
     inkscape:guide-bbox="true"
     inkscape:zoom="12.685913"
     inkscape:cx="294.87885"
     inkscape:cy="554.19906"
     inkscape:window-x="-8"
     inkscape:window-y="-8"
     inkscape:window-maximized="1"
     inkscape:current-layer="svg10" />
  <path
     d="m 279.8342,250.2502 v 13.8251 h -19 c 5.9856,-4.8679 11.1736,-8.5972 19,-13.8251 z m 0,-8.1998 c -9.5981,7.465 -16.9548,12.8945 -27,20.1498 v 7.8752 h 33.0001 v -24.0001 c 3.822,0.8904 22.8666,14.4071 27,18 h -18 v -2.9999 h 4 v -6.0001 h -10.0001 v 15.0001 h 32.0001 v -8.0002 c -10.8655,-7.2754 -24.2099,-16.5022 -34.9963,-23.9505 0,-0.4944 -0.004,-1.5953 -0.004,-4.0493 h -6.0001 z"
     style="fill:#dd2c14;fill-rule:evenodd"
     id="path2"
     inkscape:connector-curvature="0" />
  <path
     d="m 300.54385,282.15413 7.29366,0.0326 c 0,2.6164 0.0301,15.48814 0.0301,19.92144 l 5.96679,-0.0331 v -19.9998 h 6.9999 v -5 l -20.18587,-0.0499 z"
     style="fill:#dd2c14;fill-rule:evenodd"
     id="path4"
     inkscape:connector-curvature="0"
     sodipodi:nodetypes="ccccccccc" />
  <path
     d="m 252.83448,277.02543 h 5.57395 v 10.17979 l 4.12211,5.9e-4 6.20576,-10.06531 h 5.775 l -7.67237,12.07097 7.80098,12.89675 -6.66501,-0.024 -5.3626,-10.0083 h -3.9001 l -0.30377,10.03232 -5.65643,-0.024 z"
     style="fill:#dd2c14;fill-rule:evenodd"
     id="path6"
     inkscape:connector-curvature="0"
     sodipodi:nodetypes="cccccccccccccc" />
  <path
     d="m 294.1843,284.9734 c 1.2062,-1.2911 2.8131,-2.1642 3.7514,-3.1784 -12.00149,-10.61016 -22.9045,-1.33036 -22.84138,8.60348 0.0606,9.54421 11.37098,16.67442 22.54768,7.28382 -1.275,-1.1999 -2.3876,-2.2575 -3.5713,-3.3613 -10.1207,6.37707 -14.78685,0.44916 -14.1388,-5.16855 0.63079,-5.46819 6.3339,-10.63832 14.2524,-4.17905 z"
     style="fill:#dd2c14;fill-rule:evenodd"
     id="path8"
     inkscape:connector-curvature="0"
     sodipodi:nodetypes="ccsccsc" />
</svg>
