<?xml version="1.0" encoding="UTF-8"?>
<!DOCTYPE svg PUBLIC "-//W3C//DTD SVG 1.1//EN" "http://www.w3.org/Graphics/SVG/1.1/DTD/svg11.dtd">
<!-- Creator: CorelDRAW X7 -->
<svg xmlns="http://www.w3.org/2000/svg" xml:space="preserve" width="2480px" height="3508px" version="1.1" style="shape-rendering:geometricPrecision; text-rendering:geometricPrecision; image-rendering:optimizeQuality; fill-rule:evenodd; clip-rule:evenodd"
viewBox="0 0 2480 3507"
 xmlns:xlink="http://www.w3.org/1999/xlink"
 enable-background="new 0 0 463.009 463.009">
 <defs>
  <style type="text/css">
   <![CDATA[
    .fil0 {fill:#C8CAC9}
   ]]>
  </style>
 </defs>
 <g id="Слой_x0020_1">
  <metadata id="CorelCorpID_0Corel-Layer"/>
  <g id="_214508768">
   <path class="fil0" d="M2478 2555c-8,-60 -42,-111 -94,-141l-612 -352c-75,-43 -170,-31 -231,30l-121 121c-32,32 -82,35 -118,6 -95,-76 -188,-160 -278,-250 -89,-89 -173,-183 -250,-278 -28,-35 -25,-86 7,-118l120 -120c62,-61 74,-156 31,-231l-352 -612c-30,-52 -82,-87 -141,-95 -60,-7 -118,12 -161,55l-181 181c-127,127 -129,359 -6,653 118,283 339,595 622,877 282,283 594,504 876,622 145,60 275,91 384,91 113,0 205,-32 269,-97l182 -181c42,-43 62,-101 54,-161l0 0zm-746 -424l612 353c30,17 50,47 55,81 3,29 -4,58 -21,81l-193 194c-100,101 -306,97 -565,-11 -273,-115 -575,-329 -851,-605 -275,-275 -490,-577 -604,-851 -108,-258 -112,-464 -12,-565l195 -192c23,-17 52,-25 80,-21l0 0c35,5 65,25 82,55l352 612c25,43 18,98 -17,134l-121 120c-61,62 -66,158 -12,226 78,97 164,193 256,284 91,92 187,178 284,256 67,54 164,49 225,-12l121 -121c35,-35 90,-43 134,-18l0 0z"/>
  </g>
 </g>
</svg>
